<svg viewBox="0 0 137 151" fill="none" xmlns="http://www.w3.org/2000/svg"
    height="800" width="800"
>
    <path fill-rule="evenodd" clip-rule="evenodd"
        d="M64.5919 1.70626C67.0108 0.34895 69.9891 0.34895 72.4044 1.70626C84.3566 8.41444 120.324 28.6067 132.279 35.3149C134.698 36.6686 136.187 39.1766 136.187 41.8912C136.187 55.3076 136.187 95.6885 136.187 109.105C136.187 111.819 134.698 114.327 132.279 115.685C120.327 122.393 84.3602 142.585 72.4044 149.293C69.9855 150.651 67.0073 150.651 64.5919 149.293C52.6397 142.585 16.6727 122.393 4.71698 115.685C2.30161 114.327 0.812485 111.823 0.812485 109.108C0.812485 95.6921 0.812485 55.3112 0.812485 41.8948C0.812485 39.1802 2.30161 36.6722 4.72055 35.3149C16.6692 28.6067 52.6433 8.41444 64.5919 1.70626Z"
        fill="white" />
    <path fill-rule="evenodd" clip-rule="evenodd"
        d="M1.89548 112.564C0.947859 111.296 0.812485 110.092 0.812485 108.471C0.812485 95.1329 0.812485 54.9835 0.812485 41.642C0.812485 38.9416 2.29805 36.4478 4.70986 35.1012C16.6193 28.4322 52.4651 8.35755 64.3746 1.685C66.7864 0.334809 70.0532 0.363309 72.465 1.7135C84.3744 8.38249 120.099 28.2862 132.009 34.9552C132.97 35.4967 133.704 36.1486 134.36 37.0072L1.89548 112.564Z"
        fill="white" />
    <path fill-rule="evenodd" clip-rule="evenodd"
        d="M68.4999 25.625C96.0274 25.625 118.375 47.9725 118.375 75.5C118.375 103.027 96.0274 125.375 68.4999 125.375C40.9725 125.375 18.625 103.027 18.625 75.5C18.625 47.9725 40.9725 25.625 68.4999 25.625ZM68.4999 50.5625C82.2619 50.5625 93.4374 61.7345 93.4374 75.5C93.4374 89.2619 82.2619 100.437 68.4999 100.437C54.738 100.437 43.5625 89.2619 43.5625 75.5C43.5625 61.7345 54.7344 50.5625 68.4999 50.5625Z"
        fill="black" />
    <path fill-rule="evenodd" clip-rule="evenodd"
        d="M134.353 37.0428C136.191 38.7635 136.155 41.357 136.155 43.3983C136.155 56.918 136.041 95.3716 136.187 108.891C136.202 110.302 135.735 111.788 135.037 112.906L67.05 75.4999L134.353 37.0428Z"
        fill="#E5E5E5" />
</svg>