<svg viewBox="0 0 246 246" fill="none" xmlns="http://www.w3.org/2000/svg" height="800" width="800">
    <g clip-path="url(#clip0_4_2)">
        <path
            d="M184.5 30.75C184.5 13.7672 156.966 0 123 0C89.0345 0 61.5 13.7672 61.5 30.75V215.25C61.5 232.233 89.0345 246 123 246C156.966 246 184.5 232.233 184.5 215.25V30.75Z"
            fill="white" />
        <path
            d="M215.25 61.5H30.75C13.7672 61.5 0 89.0345 0 123C0 156.966 13.7672 184.5 30.75 184.5H215.25C232.233 184.5 246 156.966 246 123C246 89.0345 232.233 61.5 215.25 61.5Z"
            fill="#FFFEFE" />
        <path
            d="M89.175 42.1275C95.4586 42.1275 100.553 37.0336 100.553 30.75C100.553 24.4664 95.4586 19.3725 89.175 19.3725C82.8914 19.3725 77.7975 24.4664 77.7975 30.75C77.7975 37.0336 82.8914 42.1275 89.175 42.1275Z"
            fill="black" />
        <path d="M61.5 58.425H123" stroke="black" />
        <path d="M123 187.575H184.5" stroke="black" />
        <path
            d="M156.825 226.627C163.109 226.627 168.202 221.534 168.202 215.25C168.202 208.966 163.109 203.873 156.825 203.873C150.541 203.873 145.447 208.966 145.447 215.25C145.447 221.534 150.541 226.627 156.825 226.627Z"
            fill="black" />
        <path d="M58.425 184.5C58.425 123 73.8 123 119.925 123C172.2 123 187.575 123 187.575 61.5"
            stroke="black" />
    </g>
    <defs>
        <clipPath id="clip0_4_2">
            <rect width="246" height="246" fill="white" />
        </clipPath>
    </defs>
</svg>